# This file uses centimeters as units for non-parametric coordinates.

mtllib Fork.mtl
g default
v -0.050000 0.350000 0.500000
v 0.050000 0.350000 0.500000
v -0.050000 0.350000 1.500000
v 0.050000 0.350000 1.500000
v -0.050000 0.250000 0.100000
v 0.050000 0.250000 0.100000
v -0.050000 0.250000 0.500000
v 0.050000 0.250000 0.500000
v -0.050000 0.150000 -1.300000
v 0.050000 0.150000 -1.300000
v -0.050000 0.150000 0.100000
v 0.050000 0.150000 0.100000
v -0.050000 0.150000 0.700000
v 0.050000 0.150000 0.700000
v -0.050000 0.150000 1.500000
v 0.050000 0.150000 1.500000
v -0.050000 0.050000 -1.500000
v 0.050000 0.050000 -1.500000
v -0.050000 0.050000 -1.300000
v 0.050000 0.050000 -1.300000
v -0.050000 -0.050000 0.700000
v 0.050000 -0.050000 0.700000
v -0.050000 -0.050000 1.500000
v 0.050000 -0.050000 1.500000
v -0.050000 -0.250000 0.700000
v 0.050000 -0.250000 0.700000
v -0.050000 -0.250000 1.500000
v 0.050000 -0.250000 1.500000
v -0.050000 0.250000 0.700000
v 0.050000 0.250000 0.700000
v -0.050000 0.250000 1.500000
v 0.050000 0.250000 1.500000
v -0.050000 0.050000 0.700000
v 0.050000 0.050000 0.700000
v -0.050000 0.050000 1.500000
v 0.050000 0.050000 1.500000
v -0.050000 -0.050000 -1.500000
v 0.050000 -0.050000 -1.500000
v -0.050000 -0.050000 -1.300000
v 0.050000 -0.050000 -1.300000
v -0.050000 -0.150000 -1.300000
v 0.050000 -0.150000 -1.300000
v -0.050000 -0.150000 0.100000
v 0.050000 -0.150000 0.100000
v -0.050000 -0.150000 0.700000
v 0.050000 -0.150000 0.700000
v -0.050000 -0.150000 1.500000
v 0.050000 -0.150000 1.500000
v -0.050000 -0.250000 0.100000
v 0.050000 -0.250000 0.100000
v -0.050000 -0.250000 0.500000
v 0.050000 -0.250000 0.500000
v -0.050000 -0.350000 0.500000
v 0.050000 -0.350000 0.500000
v -0.050000 -0.350000 1.500000
v 0.050000 -0.350000 1.500000
v -0.050000 0.350000 0.500000
v -0.050000 0.350000 1.500000
v -0.050000 0.250000 0.100000
v -0.050000 0.250000 0.500000
v -0.050000 0.250000 0.700000
v -0.050000 0.250000 1.500000
v -0.050000 0.150000 -1.300000
v -0.050000 0.150000 0.100000
v -0.050000 0.150000 0.700000
v -0.050000 0.150000 1.500000
v -0.050000 0.050000 -1.500000
v -0.050000 0.050000 -1.300000
v -0.050000 0.050000 0.700000
v -0.050000 0.050000 1.500000
v -0.050000 -0.050000 -1.500000
v -0.050000 -0.050000 -1.300000
v -0.050000 -0.050000 0.700000
v -0.050000 -0.050000 1.500000
v -0.050000 -0.150000 -1.300000
v -0.050000 -0.150000 0.100000
v -0.050000 -0.150000 0.700000
v -0.050000 -0.150000 1.500000
v -0.050000 -0.250000 0.100000
v -0.050000 -0.250000 0.500000
v -0.050000 -0.250000 0.700000
v -0.050000 -0.250000 1.500000
v -0.050000 -0.350000 0.500000
v -0.050000 -0.350000 1.500000
v 0.050000 0.350000 0.500000
v 0.050000 0.350000 1.500000
v 0.050000 0.250000 0.100000
v 0.050000 0.250000 0.500000
v 0.050000 0.250000 0.700000
v 0.050000 0.250000 1.500000
v 0.050000 0.150000 -1.300000
v 0.050000 0.150000 0.100000
v 0.050000 0.150000 0.700000
v 0.050000 0.150000 1.500000
v 0.050000 0.050000 -1.500000
v 0.050000 0.050000 -1.300000
v 0.050000 0.050000 0.700000
v 0.050000 0.050000 1.500000
v 0.050000 -0.050000 -1.500000
v 0.050000 -0.050000 -1.300000
v 0.050000 -0.050000 0.700000
v 0.050000 -0.050000 1.500000
v 0.050000 -0.150000 -1.300000
v 0.050000 -0.150000 0.100000
v 0.050000 -0.150000 0.700000
v 0.050000 -0.150000 1.500000
v 0.050000 -0.250000 0.100000
v 0.050000 -0.250000 0.500000
v 0.050000 -0.250000 0.700000
v 0.050000 -0.250000 1.500000
v 0.050000 -0.350000 0.500000
v 0.050000 -0.350000 1.500000
v -0.050000 0.050000 -1.500000
v -0.050000 -0.050000 -1.500000
v 0.050000 0.050000 -1.500000
v 0.050000 -0.050000 -1.500000
v -0.050000 0.150000 -1.300000
v -0.050000 0.050000 -1.300000
v -0.050000 -0.050000 -1.300000
v -0.050000 -0.150000 -1.300000
v 0.050000 0.150000 -1.300000
v 0.050000 0.050000 -1.300000
v 0.050000 -0.050000 -1.300000
v 0.050000 -0.150000 -1.300000
v -0.050000 0.250000 0.100000
v -0.050000 0.150000 0.100000
v -0.050000 -0.150000 0.100000
v -0.050000 -0.250000 0.100000
v 0.050000 0.250000 0.100000
v 0.050000 0.150000 0.100000
v 0.050000 -0.150000 0.100000
v 0.050000 -0.250000 0.100000
v -0.050000 0.350000 0.500000
v -0.050000 0.250000 0.500000
v -0.050000 -0.250000 0.500000
v -0.050000 -0.350000 0.500000
v 0.050000 0.350000 0.500000
v 0.050000 0.250000 0.500000
v 0.050000 -0.250000 0.500000
v 0.050000 -0.350000 0.500000
v -0.050000 0.250000 0.700000
v -0.050000 0.150000 0.700000
v -0.050000 0.050000 0.700000
v -0.050000 -0.050000 0.700000
v -0.050000 -0.150000 0.700000
v -0.050000 -0.250000 0.700000
v 0.050000 0.250000 0.700000
v 0.050000 0.150000 0.700000
v 0.050000 0.050000 0.700000
v 0.050000 -0.050000 0.700000
v 0.050000 -0.150000 0.700000
v 0.050000 -0.250000 0.700000
v -0.050000 0.350000 1.500000
v -0.050000 0.250000 1.500000
v -0.050000 0.150000 1.500000
v -0.050000 0.050000 1.500000
v -0.050000 -0.050000 1.500000
v -0.050000 -0.150000 1.500000
v -0.050000 -0.250000 1.500000
v -0.050000 -0.350000 1.500000
v 0.050000 0.350000 1.500000
v 0.050000 0.250000 1.500000
v 0.050000 0.150000 1.500000
v 0.050000 0.050000 1.500000
v 0.050000 -0.050000 1.500000
v 0.050000 -0.150000 1.500000
v 0.050000 -0.250000 1.500000
v 0.050000 -0.350000 1.500000
vt 0.958984 0.500000
vt 0.958984 0.500000
vt 0.958984 0.500000
vt 0.958984 0.500000
vt 0.958984 0.500000
vt 0.958984 0.500000
vt 0.958984 0.500000
vt 0.958984 0.500000
vt 0.958984 0.500000
vt 0.958984 0.500000
vt 0.958984 0.500000
vt 0.958984 0.500000
vt 0.958984 0.500000
vt 0.958984 0.500000
vt 0.958984 0.500000
vt 0.958984 0.500000
vt 0.958984 0.500000
vt 0.958984 0.500000
vt 0.958984 0.500000
vt 0.958984 0.500000
vt 0.958984 0.500000
vt 0.958984 0.500000
vt 0.958984 0.500000
vt 0.958984 0.500000
vt 0.958984 0.500000
vt 0.958984 0.500000
vt 0.958984 0.500000
vt 0.958984 0.500000
vt 0.958984 0.500000
vt 0.958984 0.500000
vt 0.958984 0.500000
vt 0.958984 0.500000
vt 0.958984 0.500000
vt 0.958984 0.500000
vt 0.958984 0.500000
vt 0.958984 0.500000
vt 0.958984 0.500000
vt 0.958984 0.500000
vt 0.958984 0.500000
vt 0.958984 0.500000
vt 0.958984 0.500000
vt 0.958984 0.500000
vt 0.958984 0.500000
vt 0.958984 0.500000
vt 0.958984 0.500000
vt 0.958984 0.500000
vt 0.958984 0.500000
vt 0.958984 0.500000
vt 0.958984 0.500000
vt 0.958984 0.500000
vt 0.958984 0.500000
vt 0.958984 0.500000
vt 0.958984 0.500000
vt 0.958984 0.500000
vt 0.958984 0.500000
vt 0.958984 0.500000
vt 0.958984 0.500000
vt 0.958984 0.500000
vt 0.958984 0.500000
vt 0.958984 0.500000
vt 0.958984 0.500000
vt 0.958984 0.500000
vt 0.958984 0.500000
vt 0.958984 0.500000
vt 0.958984 0.500000
vt 0.958984 0.500000
vt 0.958984 0.500000
vt 0.958984 0.500000
vt 0.958984 0.500000
vt 0.958984 0.500000
vt 0.958984 0.500000
vt 0.958984 0.500000
vt 0.958984 0.500000
vt 0.958984 0.500000
vt 0.958984 0.500000
vt 0.958984 0.500000
vt 0.958984 0.500000
vt 0.958984 0.500000
vt 0.958984 0.500000
vt 0.958984 0.500000
vt 0.958984 0.500000
vt 0.958984 0.500000
vt 0.958984 0.500000
vt 0.958984 0.500000
vt 0.958984 0.500000
vt 0.958984 0.500000
vt 0.958984 0.500000
vt 0.958984 0.500000
vt 0.958984 0.500000
vt 0.958984 0.500000
vt 0.958984 0.500000
vt 0.958984 0.500000
vt 0.958984 0.500000
vt 0.958984 0.500000
vt 0.958984 0.500000
vt 0.958984 0.500000
vt 0.958984 0.500000
vt 0.958984 0.500000
vt 0.958984 0.500000
vt 0.958984 0.500000
vt 0.958984 0.500000
vt 0.958984 0.500000
vt 0.958984 0.500000
vt 0.958984 0.500000
vt 0.958984 0.500000
vt 0.958984 0.500000
vt 0.958984 0.500000
vt 0.958984 0.500000
vt 0.958984 0.500000
vt 0.958984 0.500000
vt 0.958984 0.500000
vt 0.958984 0.500000
vt 0.958984 0.500000
vt 0.958984 0.500000
vt 0.958984 0.500000
vt 0.958984 0.500000
vt 0.958984 0.500000
vt 0.958984 0.500000
vt 0.958984 0.500000
vt 0.958984 0.500000
vt 0.958984 0.500000
vt 0.958984 0.500000
vt 0.958984 0.500000
vt 0.958984 0.500000
vt 0.958984 0.500000
vt 0.958984 0.500000
vt 0.958984 0.500000
vt 0.958984 0.500000
vt 0.958984 0.500000
vt 0.958984 0.500000
vt 0.958984 0.500000
vt 0.958984 0.500000
vt 0.958984 0.500000
vt 0.958984 0.500000
vt 0.958984 0.500000
vt 0.958984 0.500000
vt 0.958984 0.500000
vt 0.958984 0.500000
vt 0.958984 0.500000
vt 0.958984 0.500000
vt 0.958984 0.500000
vt 0.958984 0.500000
vt 0.958984 0.500000
vt 0.958984 0.500000
vt 0.958984 0.500000
vt 0.958984 0.500000
vt 0.958984 0.500000
vt 0.958984 0.500000
vt 0.958984 0.500000
vt 0.958984 0.500000
vt 0.958984 0.500000
vt 0.958984 0.500000
vt 0.958984 0.500000
vt 0.958984 0.500000
vt 0.958984 0.500000
vt 0.958984 0.500000
vt 0.958984 0.500000
vt 0.958984 0.500000
vt 0.958984 0.500000
vt 0.958984 0.500000
vt 0.958984 0.500000
vt 0.958984 0.500000
vt 0.958984 0.500000
vt 0.958984 0.500000
vt 0.958984 0.500000
vt 0.958984 0.500000
vt 0.958984 0.500000
vt 0.958984 0.500000
vn 0.000000 1.000000 0.000000
vn 0.000000 1.000000 0.000000
vn 0.000000 1.000000 0.000000
vn 0.000000 1.000000 0.000000
vn 0.000000 1.000000 0.000000
vn 0.000000 1.000000 0.000000
vn 0.000000 1.000000 0.000000
vn 0.000000 1.000000 0.000000
vn 0.000000 1.000000 0.000000
vn 0.000000 1.000000 0.000000
vn 0.000000 1.000000 0.000000
vn 0.000000 1.000000 0.000000
vn 0.000000 1.000000 0.000000
vn 0.000000 1.000000 0.000000
vn 0.000000 1.000000 0.000000
vn 0.000000 1.000000 0.000000
vn 0.000000 1.000000 0.000000
vn 0.000000 1.000000 0.000000
vn 0.000000 1.000000 0.000000
vn 0.000000 1.000000 0.000000
vn 0.000000 1.000000 0.000000
vn 0.000000 1.000000 0.000000
vn 0.000000 1.000000 0.000000
vn 0.000000 1.000000 0.000000
vn 0.000000 1.000000 0.000000
vn 0.000000 1.000000 0.000000
vn 0.000000 1.000000 0.000000
vn 0.000000 1.000000 0.000000
vn 0.000000 1.000000 0.000000
vn 0.000000 1.000000 0.000000
vn 0.000000 1.000000 0.000000
vn 0.000000 1.000000 0.000000
vn 0.000000 1.000000 0.000000
vn 0.000000 1.000000 0.000000
vn 0.000000 1.000000 0.000000
vn 0.000000 1.000000 0.000000
vn 0.000000 1.000000 0.000000
vn 0.000000 1.000000 0.000000
vn 0.000000 1.000000 0.000000
vn 0.000000 1.000000 0.000000
vn 0.000000 1.000000 0.000000
vn 0.000000 1.000000 0.000000
vn 0.000000 -1.000000 0.000000
vn 0.000000 -1.000000 0.000000
vn 0.000000 -1.000000 0.000000
vn 0.000000 -1.000000 0.000000
vn 0.000000 -1.000000 0.000000
vn 0.000000 -1.000000 0.000000
vn 0.000000 -1.000000 0.000000
vn 0.000000 -1.000000 0.000000
vn 0.000000 -1.000000 0.000000
vn 0.000000 -1.000000 0.000000
vn 0.000000 -1.000000 0.000000
vn 0.000000 -1.000000 0.000000
vn 0.000000 -1.000000 0.000000
vn 0.000000 -1.000000 0.000000
vn 0.000000 -1.000000 0.000000
vn 0.000000 -1.000000 0.000000
vn 0.000000 -1.000000 0.000000
vn 0.000000 -1.000000 0.000000
vn 0.000000 -1.000000 0.000000
vn 0.000000 -1.000000 0.000000
vn 0.000000 -1.000000 0.000000
vn 0.000000 -1.000000 0.000000
vn 0.000000 -1.000000 0.000000
vn 0.000000 -1.000000 0.000000
vn 0.000000 -1.000000 0.000000
vn 0.000000 -1.000000 0.000000
vn 0.000000 -1.000000 0.000000
vn 0.000000 -1.000000 0.000000
vn 0.000000 -1.000000 0.000000
vn 0.000000 -1.000000 0.000000
vn 0.000000 -1.000000 0.000000
vn 0.000000 -1.000000 0.000000
vn 0.000000 -1.000000 0.000000
vn 0.000000 -1.000000 0.000000
vn 0.000000 -1.000000 0.000000
vn 0.000000 -1.000000 0.000000
vn 0.000000 -1.000000 0.000000
vn 0.000000 -1.000000 0.000000
vn 0.000000 -1.000000 0.000000
vn 0.000000 -1.000000 0.000000
vn 0.000000 -1.000000 0.000000
vn 0.000000 -1.000000 0.000000
vn -1.000000 0.000000 0.000000
vn -1.000000 0.000000 0.000000
vn -1.000000 0.000000 0.000000
vn -1.000000 0.000000 0.000000
vn -1.000000 0.000000 0.000000
vn -1.000000 0.000000 0.000000
vn -1.000000 0.000000 0.000000
vn -1.000000 0.000000 0.000000
vn -1.000000 0.000000 0.000000
vn -1.000000 0.000000 0.000000
vn -1.000000 0.000000 0.000000
vn -1.000000 0.000000 0.000000
vn -1.000000 0.000000 0.000000
vn -1.000000 0.000000 0.000000
vn -1.000000 0.000000 0.000000
vn -1.000000 0.000000 0.000000
vn -1.000000 0.000000 0.000000
vn -1.000000 0.000000 0.000000
vn -1.000000 0.000000 0.000000
vn -1.000000 0.000000 0.000000
vn -1.000000 0.000000 0.000000
vn -1.000000 0.000000 0.000000
vn -1.000000 0.000000 0.000000
vn -1.000000 0.000000 0.000000
vn -1.000000 0.000000 0.000000
vn -1.000000 0.000000 0.000000
vn -1.000000 0.000000 0.000000
vn -1.000000 0.000000 0.000000
vn -1.000000 0.000000 0.000000
vn -1.000000 0.000000 0.000000
vn -1.000000 0.000000 0.000000
vn -1.000000 0.000000 0.000000
vn -1.000000 0.000000 0.000000
vn -1.000000 0.000000 0.000000
vn -1.000000 0.000000 0.000000
vn -1.000000 0.000000 0.000000
vn -1.000000 0.000000 0.000000
vn -1.000000 0.000000 0.000000
vn -1.000000 0.000000 0.000000
vn -1.000000 0.000000 0.000000
vn -1.000000 0.000000 0.000000
vn -1.000000 0.000000 0.000000
vn -1.000000 0.000000 0.000000
vn -1.000000 0.000000 0.000000
vn -1.000000 0.000000 0.000000
vn -1.000000 0.000000 0.000000
vn -1.000000 0.000000 0.000000
vn -1.000000 0.000000 0.000000
vn -1.000000 0.000000 0.000000
vn -1.000000 0.000000 0.000000
vn -1.000000 0.000000 0.000000
vn -1.000000 0.000000 0.000000
vn -1.000000 0.000000 0.000000
vn -1.000000 0.000000 0.000000
vn -1.000000 0.000000 0.000000
vn -1.000000 0.000000 0.000000
vn -1.000000 0.000000 0.000000
vn -1.000000 0.000000 0.000000
vn -1.000000 0.000000 0.000000
vn -1.000000 0.000000 0.000000
vn -1.000000 0.000000 0.000000
vn -1.000000 0.000000 0.000000
vn -1.000000 0.000000 0.000000
vn -1.000000 0.000000 0.000000
vn -1.000000 0.000000 0.000000
vn -1.000000 0.000000 0.000000
vn -1.000000 0.000000 0.000000
vn -1.000000 0.000000 0.000000
vn -1.000000 0.000000 0.000000
vn -1.000000 0.000000 0.000000
vn -1.000000 0.000000 0.000000
vn -1.000000 0.000000 0.000000
vn -1.000000 0.000000 0.000000
vn -1.000000 0.000000 0.000000
vn -1.000000 0.000000 0.000000
vn -1.000000 0.000000 0.000000
vn -1.000000 0.000000 0.000000
vn -1.000000 0.000000 0.000000
vn 1.000000 0.000000 0.000000
vn 1.000000 0.000000 0.000000
vn 1.000000 0.000000 0.000000
vn 1.000000 0.000000 0.000000
vn 1.000000 0.000000 0.000000
vn 1.000000 0.000000 0.000000
vn 1.000000 0.000000 0.000000
vn 1.000000 0.000000 0.000000
vn 1.000000 0.000000 0.000000
vn 1.000000 0.000000 0.000000
vn 1.000000 0.000000 0.000000
vn 1.000000 0.000000 0.000000
vn 1.000000 0.000000 0.000000
vn 1.000000 0.000000 0.000000
vn 1.000000 0.000000 0.000000
vn 1.000000 0.000000 0.000000
vn 1.000000 0.000000 0.000000
vn 1.000000 0.000000 0.000000
vn 1.000000 0.000000 0.000000
vn 1.000000 0.000000 0.000000
vn 1.000000 0.000000 0.000000
vn 1.000000 0.000000 0.000000
vn 1.000000 0.000000 0.000000
vn 1.000000 0.000000 0.000000
vn 1.000000 0.000000 0.000000
vn 1.000000 0.000000 0.000000
vn 1.000000 0.000000 0.000000
vn 1.000000 0.000000 0.000000
vn 1.000000 0.000000 0.000000
vn 1.000000 0.000000 0.000000
vn 1.000000 0.000000 0.000000
vn 1.000000 0.000000 0.000000
vn 1.000000 0.000000 0.000000
vn 1.000000 0.000000 0.000000
vn 1.000000 0.000000 0.000000
vn 1.000000 0.000000 0.000000
vn 1.000000 0.000000 0.000000
vn 1.000000 0.000000 0.000000
vn 1.000000 0.000000 0.000000
vn 1.000000 0.000000 0.000000
vn 1.000000 0.000000 0.000000
vn 1.000000 0.000000 0.000000
vn 1.000000 0.000000 0.000000
vn 1.000000 0.000000 0.000000
vn 1.000000 0.000000 0.000000
vn 1.000000 0.000000 0.000000
vn 1.000000 0.000000 0.000000
vn 1.000000 0.000000 0.000000
vn 1.000000 0.000000 0.000000
vn 1.000000 0.000000 0.000000
vn 1.000000 0.000000 0.000000
vn 1.000000 0.000000 0.000000
vn 1.000000 0.000000 0.000000
vn 1.000000 0.000000 0.000000
vn 1.000000 0.000000 0.000000
vn 1.000000 0.000000 0.000000
vn 1.000000 0.000000 0.000000
vn 1.000000 0.000000 0.000000
vn 1.000000 0.000000 0.000000
vn 1.000000 0.000000 0.000000
vn 1.000000 0.000000 0.000000
vn 1.000000 0.000000 0.000000
vn 1.000000 0.000000 0.000000
vn 1.000000 0.000000 0.000000
vn 1.000000 0.000000 0.000000
vn 1.000000 0.000000 0.000000
vn 1.000000 0.000000 0.000000
vn 1.000000 0.000000 0.000000
vn 1.000000 0.000000 0.000000
vn 1.000000 0.000000 0.000000
vn 1.000000 0.000000 0.000000
vn 1.000000 0.000000 0.000000
vn 1.000000 0.000000 0.000000
vn 1.000000 0.000000 0.000000
vn 1.000000 0.000000 0.000000
vn 1.000000 0.000000 0.000000
vn 1.000000 0.000000 0.000000
vn 1.000000 0.000000 0.000000
vn 0.000000 0.000000 -1.000000
vn 0.000000 0.000000 -1.000000
vn 0.000000 0.000000 -1.000000
vn 0.000000 0.000000 -1.000000
vn 0.000000 0.000000 -1.000000
vn 0.000000 0.000000 -1.000000
vn 0.000000 0.000000 -1.000000
vn 0.000000 0.000000 -1.000000
vn 0.000000 0.000000 -1.000000
vn 0.000000 0.000000 -1.000000
vn 0.000000 0.000000 -1.000000
vn 0.000000 0.000000 -1.000000
vn 0.000000 0.000000 -1.000000
vn 0.000000 0.000000 -1.000000
vn 0.000000 0.000000 -1.000000
vn 0.000000 0.000000 -1.000000
vn 0.000000 0.000000 -1.000000
vn 0.000000 0.000000 -1.000000
vn 0.000000 0.000000 -1.000000
vn 0.000000 0.000000 -1.000000
vn 0.000000 0.000000 -1.000000
vn 0.000000 0.000000 -1.000000
vn 0.000000 0.000000 -1.000000
vn 0.000000 0.000000 -1.000000
vn 0.000000 0.000000 -1.000000
vn 0.000000 0.000000 -1.000000
vn 0.000000 0.000000 -1.000000
vn 0.000000 0.000000 -1.000000
vn 0.000000 0.000000 -1.000000
vn 0.000000 0.000000 -1.000000
vn 0.000000 0.000000 -1.000000
vn 0.000000 0.000000 -1.000000
vn 0.000000 0.000000 -1.000000
vn 0.000000 0.000000 -1.000000
vn 0.000000 0.000000 -1.000000
vn 0.000000 0.000000 -1.000000
vn 0.000000 0.000000 -1.000000
vn 0.000000 0.000000 -1.000000
vn 0.000000 0.000000 -1.000000
vn 0.000000 0.000000 -1.000000
vn 0.000000 0.000000 -1.000000
vn 0.000000 0.000000 -1.000000
vn 0.000000 0.000000 1.000000
vn 0.000000 0.000000 1.000000
vn 0.000000 0.000000 1.000000
vn 0.000000 0.000000 1.000000
vn 0.000000 0.000000 1.000000
vn 0.000000 0.000000 1.000000
vn 0.000000 0.000000 1.000000
vn 0.000000 0.000000 1.000000
vn 0.000000 0.000000 1.000000
vn 0.000000 0.000000 1.000000
vn 0.000000 0.000000 1.000000
vn 0.000000 0.000000 1.000000
vn 0.000000 0.000000 1.000000
vn 0.000000 0.000000 1.000000
vn 0.000000 0.000000 1.000000
vn 0.000000 0.000000 1.000000
vn 0.000000 0.000000 1.000000
vn 0.000000 0.000000 1.000000
vn 0.000000 0.000000 1.000000
vn 0.000000 0.000000 1.000000
vn 0.000000 0.000000 1.000000
vn 0.000000 0.000000 1.000000
vn 0.000000 0.000000 1.000000
vn 0.000000 0.000000 1.000000
vn 0.000000 0.000000 1.000000
vn 0.000000 0.000000 1.000000
vn 0.000000 0.000000 1.000000
vn 0.000000 0.000000 1.000000
vn 0.000000 0.000000 1.000000
vn 0.000000 0.000000 1.000000
vn 0.000000 0.000000 1.000000
vn 0.000000 0.000000 1.000000
vn 0.000000 0.000000 1.000000
vn 0.000000 0.000000 1.000000
vn 0.000000 0.000000 1.000000
vn 0.000000 0.000000 1.000000
vn 0.000000 0.000000 1.000000
vn 0.000000 0.000000 1.000000
vn 0.000000 0.000000 1.000000
vn 0.000000 0.000000 1.000000
vn 0.000000 0.000000 1.000000
vn 0.000000 0.000000 1.000000
s off
g Fork:Mesh
usemtl initialShadingGroup
f 3/1/1 2/2/2 1/3/3
f 4/4/4 2/2/5 3/1/6
f 7/5/7 6/6/8 5/7/9
f 8/8/10 6/6/11 7/5/12
f 11/9/13 10/10/14 9/11/15
f 12/12/16 10/10/17 11/9/18
f 15/13/19 14/14/20 13/15/21
f 16/16/22 14/14/23 15/13/24
f 19/17/25 18/18/26 17/19/27
f 20/20/28 18/18/29 19/17/30
f 23/21/31 22/22/32 21/23/33
f 24/24/34 22/22/35 23/21/36
f 27/25/37 26/26/38 25/27/39
f 28/28/40 26/26/41 27/25/42
f 29/29/43 30/30/44 31/31/45
f 31/31/46 30/30/47 32/32/48
f 33/33/49 34/34/50 35/35/51
f 35/35/52 34/34/53 36/36/54
f 37/37/55 38/38/56 39/39/57
f 39/39/58 38/38/59 40/40/60
f 41/41/61 42/42/62 43/43/63
f 43/43/64 42/42/65 44/44/66
f 45/45/67 46/46/68 47/47/69
f 47/47/70 46/46/71 48/48/72
f 49/49/73 50/50/74 51/51/75
f 51/51/76 50/50/77 52/52/78
f 53/53/79 54/54/80 55/55/81
f 55/55/82 54/54/83 56/56/84
f 60/57/85 58/58/86 57/59/87
f 61/60/88 58/58/89 60/57/90
f 62/61/91 58/58/92 61/60/93
f 64/62/94 60/57/95 59/63/96
f 64/62/97 61/60/98 60/57/99
f 65/64/100 61/60/101 64/62/102
f 68/65/103 64/62/104 63/66/105
f 68/65/106 66/67/107 65/64/108
f 68/65/109 65/64/110 64/62/111
f 69/68/112 66/67/113 68/65/114
f 70/69/115 66/67/116 69/68/117
f 71/70/118 68/65/119 67/71/120
f 71/70/121 69/68/122 68/65/123
f 72/72/124 69/68/125 71/70/126
f 73/73/127 69/68/128 72/72/129
f 75/74/130 74/75/131 73/73/132
f 75/74/133 73/73/134 72/72/135
f 76/76/136 74/75/137 75/74/138
f 77/77/139 74/75/140 76/76/141
f 78/78/142 74/75/143 77/77/144
f 79/79/145 77/77/146 76/76/147
f 80/80/148 77/77/149 79/79/150
f 81/81/151 77/77/152 80/80/153
f 83/82/154 82/83/155 81/81/156
f 83/82/157 81/81/158 80/80/159
f 84/84/160 82/83/161 83/82/162
f 85/85/163 86/86/164 88/87/165
f 88/87/166 86/86/167 89/88/168
f 89/88/169 86/86/170 90/89/171
f 87/90/172 88/87/173 92/91/174
f 88/87/175 89/88/176 92/91/177
f 92/91/178 89/88/179 93/92/180
f 91/93/181 92/91/182 96/94/183
f 93/92/184 94/95/185 96/94/186
f 92/91/187 93/92/188 96/94/189
f 96/94/190 94/95/191 97/96/192
f 97/96/193 94/95/194 98/97/195
f 95/98/196 96/94/197 99/99/198
f 96/94/199 97/96/200 99/99/201
f 99/99/202 97/96/203 100/100/204
f 100/100/205 97/96/206 101/101/207
f 101/101/208 102/102/209 103/103/210
f 100/100/211 101/101/212 103/103/213
f 103/103/214 102/102/215 104/104/216
f 104/104/217 102/102/218 105/105/219
f 105/105/220 102/102/221 106/106/222
f 104/104/223 105/105/224 107/107/225
f 107/107/226 105/105/227 108/108/228
f 108/108/229 105/105/230 109/109/231
f 109/109/232 110/110/233 111/111/234
f 108/108/235 109/109/236 111/111/237
f 111/111/238 110/110/239 112/112/240
f 115/113/241 114/114/242 113/115/243
f 116/116/244 114/114/245 115/113/246
f 121/117/247 118/118/248 117/119/249
f 122/120/250 118/118/251 121/117/252
f 123/121/253 120/122/254 119/123/255
f 124/124/256 120/122/257 123/121/258
f 129/125/259 126/126/260 125/127/261
f 130/128/262 126/126/263 129/125/264
f 131/129/265 128/130/266 127/131/267
f 132/132/268 128/130/269 131/129/270
f 137/133/271 134/134/272 133/135/273
f 138/136/274 134/134/275 137/133/276
f 139/137/277 136/138/278 135/139/279
f 140/140/280 136/138/281 139/137/282
f 141/141/283 142/142/284 147/143/285
f 147/143/286 142/142/287 148/144/288
f 143/145/289 144/146/290 149/147/291
f 149/147/292 144/146/293 150/148/294
f 145/149/295 146/150/296 151/151/297
f 151/151/298 146/150/299 152/152/300
f 153/153/301 154/154/302 161/155/303
f 161/155/304 154/154/305 162/156/306
f 155/157/307 156/158/308 163/159/309
f 163/159/310 156/158/311 164/160/312
f 157/161/313 158/162/314 165/163/315
f 165/163/316 158/162/317 166/164/318
f 159/165/319 160/166/320 167/167/321
f 167/167/322 160/166/323 168/168/324
