# This file uses centimeters as units for non-parametric coordinates.

mtllib Shell.mtl
g default
v 0.094709 -0.328974 -0.270598
v 0.000000 -0.328974 -0.382683
v -0.094709 -0.328974 -0.270598
v -0.133939 -0.328974 0.000000
v -0.094709 -0.328974 0.270598
v 0.000000 -0.328974 0.382683
v 0.094709 -0.328974 0.270598
v 0.133939 -0.328974 0.000000
v 0.175000 -0.253103 -0.500000
v 0.000000 -0.253103 -0.707107
v -0.175000 -0.253103 -0.500000
v -0.247487 -0.253103 0.000000
v -0.175000 -0.253103 0.500000
v 0.000000 -0.253103 0.707107
v 0.175000 -0.253103 0.500000
v 0.247487 -0.253103 0.000000
v 0.228648 -0.139555 -0.653281
v 0.000000 -0.139555 -0.923879
v -0.228648 -0.139555 -0.653281
v -0.323358 -0.139555 0.000000
v -0.228648 -0.139555 0.653281
v 0.000000 -0.139555 0.923879
v 0.228649 -0.139555 0.653281
v 0.323358 -0.139555 0.000000
v 0.247487 -0.005616 -0.707107
v 0.000000 -0.005616 -1.000000
v -0.247487 -0.005616 -0.707107
v -0.350000 -0.005616 0.000000
v -0.247487 -0.005616 0.707107
v 0.000000 -0.005616 1.000000
v 0.247487 -0.005616 0.707107
v 0.350000 -0.005616 0.000000
v 0.228648 0.128323 -0.653281
v 0.000000 0.128323 -0.923879
v -0.228648 0.128323 -0.653281
v -0.323358 0.128323 0.000000
v -0.228648 0.128323 0.653281
v 0.000000 0.128323 0.923879
v 0.228649 0.128323 0.653281
v 0.323358 0.128323 0.000000
v 0.175000 0.241871 -0.500000
v 0.000000 0.241871 -0.707107
v -0.175000 0.241871 -0.500000
v -0.247487 0.241871 0.000000
v -0.175000 0.241871 0.500000
v 0.000000 0.241871 0.707107
v 0.175000 0.241871 0.500000
v 0.247487 0.241871 0.000000
v 0.094709 0.317742 -0.270598
v 0.000000 0.317742 -0.382683
v -0.094709 0.317742 -0.270598
v -0.133939 0.317742 0.000000
v -0.094709 0.317742 0.270598
v 0.000000 0.317742 0.382683
v 0.094709 0.317742 0.270598
v 0.133939 0.317742 0.000000
v 0.000000 -0.355616 0.000000
v 0.000000 0.344384 0.000000
vt 0.000000 0.125000
vt 0.125000 0.125000
vt 0.125000 0.250000
vt 0.000000 0.250000
vt 0.250000 0.125000
vt 0.250000 0.250000
vt 0.375000 0.125000
vt 0.375000 0.250000
vt 0.500000 0.125000
vt 0.500000 0.250000
vt 0.625000 0.125000
vt 0.625000 0.250000
vt 0.750000 0.125000
vt 0.750000 0.250000
vt 0.875000 0.125000
vt 0.875000 0.250000
vt 1.000000 0.125000
vt 1.000000 0.250000
vt 0.125000 0.375000
vt 0.000000 0.375000
vt 0.250000 0.375000
vt 0.375000 0.375000
vt 0.500000 0.375000
vt 0.625000 0.375000
vt 0.750000 0.375000
vt 0.875000 0.375000
vt 1.000000 0.375000
vt 0.125000 0.500000
vt 0.000000 0.500000
vt 0.250000 0.500000
vt 0.375000 0.500000
vt 0.500000 0.500000
vt 0.625000 0.500000
vt 0.750000 0.500000
vt 0.875000 0.500000
vt 1.000000 0.500000
vt 0.125000 0.625000
vt 0.000000 0.625000
vt 0.250000 0.625000
vt 0.375000 0.625000
vt 0.500000 0.625000
vt 0.625000 0.625000
vt 0.750000 0.625000
vt 0.875000 0.625000
vt 1.000000 0.625000
vt 0.125000 0.750000
vt 0.000000 0.750000
vt 0.250000 0.750000
vt 0.375000 0.750000
vt 0.500000 0.750000
vt 0.625000 0.750000
vt 0.750000 0.750000
vt 0.875000 0.750000
vt 1.000000 0.750000
vt 0.125000 0.875000
vt 0.000000 0.875000
vt 0.250000 0.875000
vt 0.375000 0.875000
vt 0.500000 0.875000
vt 0.625000 0.875000
vt 0.750000 0.875000
vt 0.875000 0.875000
vt 1.000000 0.875000
vt 0.062500 0.000000
vt 0.187500 0.000000
vt 0.312500 0.000000
vt 0.437500 0.000000
vt 0.562500 0.000000
vt 0.687500 0.000000
vt 0.812500 0.000000
vt 0.937500 0.000000
vt 0.062500 1.000000
vt 0.187500 1.000000
vt 0.312500 1.000000
vt 0.437500 1.000000
vt 0.562500 1.000000
vt 0.687500 1.000000
vt 0.812500 1.000000
vt 0.937500 1.000000
vn 0.260213 -0.940183 -0.219874
vn 0.260213 -0.940183 -0.219874
vn 0.260213 -0.940183 -0.219874
vn 0.260213 -0.940183 -0.219874
vn -0.260213 -0.940183 -0.219874
vn -0.260213 -0.940183 -0.219874
vn -0.260213 -0.940183 -0.219874
vn -0.260213 -0.940183 -0.219874
vn -0.553777 -0.828786 -0.080284
vn -0.553777 -0.828786 -0.080284
vn -0.553777 -0.828786 -0.080284
vn -0.553777 -0.828786 -0.080284
vn -0.553777 -0.828786 0.080284
vn -0.553777 -0.828786 0.080284
vn -0.553777 -0.828786 0.080284
vn -0.553777 -0.828786 0.080284
vn -0.260213 -0.940183 0.219874
vn -0.260213 -0.940183 0.219874
vn -0.260213 -0.940183 0.219874
vn -0.260213 -0.940183 0.219874
vn 0.260213 -0.940183 0.219874
vn 0.260213 -0.940183 0.219874
vn 0.260213 -0.940183 0.219874
vn 0.260213 -0.940183 0.219874
vn 0.553777 -0.828786 0.080284
vn 0.553777 -0.828786 0.080284
vn 0.553777 -0.828786 0.080284
vn 0.553777 -0.828786 0.080284
vn 0.553777 -0.828786 -0.080284
vn 0.553777 -0.828786 -0.080284
vn 0.553777 -0.828786 -0.080284
vn 0.553777 -0.828786 -0.080284
vn 0.481339 -0.776461 -0.406720
vn 0.481339 -0.776461 -0.406720
vn 0.481339 -0.776461 -0.406720
vn 0.481339 -0.776461 -0.406720
vn -0.481339 -0.776461 -0.406720
vn -0.481339 -0.776461 -0.406720
vn -0.481339 -0.776461 -0.406720
vn -0.481339 -0.776461 -0.406720
vn -0.825494 -0.551577 -0.119676
vn -0.825494 -0.551577 -0.119676
vn -0.825494 -0.551577 -0.119676
vn -0.825494 -0.551577 -0.119676
vn -0.825494 -0.551577 0.119676
vn -0.825494 -0.551577 0.119676
vn -0.825494 -0.551577 0.119676
vn -0.825494 -0.551577 0.119676
vn -0.481339 -0.776461 0.406720
vn -0.481339 -0.776461 0.406720
vn -0.481339 -0.776461 0.406720
vn -0.481339 -0.776461 0.406720
vn 0.481339 -0.776461 0.406720
vn 0.481339 -0.776461 0.406720
vn 0.481339 -0.776461 0.406720
vn 0.481339 -0.776461 0.406720
vn 0.825494 -0.551577 0.119676
vn 0.825494 -0.551577 0.119676
vn 0.825494 -0.551577 0.119676
vn 0.825494 -0.551577 0.119676
vn 0.825494 -0.551577 -0.119676
vn 0.825494 -0.551577 -0.119676
vn 0.825494 -0.551577 -0.119676
vn 0.825494 -0.551577 -0.119676
vn 0.717110 -0.344369 -0.605940
vn 0.717110 -0.344369 -0.605940
vn 0.717110 -0.344369 -0.605940
vn 0.717110 -0.344369 -0.605940
vn -0.717110 -0.344369 -0.605940
vn -0.717110 -0.344369 -0.605940
vn -0.717110 -0.344369 -0.605940
vn -0.717110 -0.344369 -0.605940
vn -0.971018 -0.193148 -0.140773
vn -0.971018 -0.193148 -0.140773
vn -0.971018 -0.193148 -0.140773
vn -0.971018 -0.193148 -0.140773
vn -0.971019 -0.193147 0.140773
vn -0.971019 -0.193147 0.140773
vn -0.971019 -0.193147 0.140773
vn -0.971019 -0.193147 0.140773
vn -0.717110 -0.344369 0.605940
vn -0.717110 -0.344368 0.605940
vn -0.717110 -0.344369 0.605940
vn -0.717110 -0.344369 0.605940
vn 0.717110 -0.344369 0.605940
vn 0.717110 -0.344369 0.605940
vn 0.717110 -0.344369 0.605940
vn 0.717110 -0.344369 0.605940
vn 0.971018 -0.193148 0.140773
vn 0.971018 -0.193148 0.140773
vn 0.971018 -0.193148 0.140773
vn 0.971018 -0.193148 0.140773
vn 0.971018 -0.193148 -0.140773
vn 0.971018 -0.193148 -0.140773
vn 0.971018 -0.193148 -0.140773
vn 0.971018 -0.193148 -0.140773
vn 0.717110 0.344369 -0.605940
vn 0.717110 0.344369 -0.605940
vn 0.717110 0.344369 -0.605940
vn 0.717110 0.344369 -0.605940
vn -0.717110 0.344369 -0.605940
vn -0.717110 0.344369 -0.605940
vn -0.717110 0.344369 -0.605940
vn -0.717110 0.344369 -0.605940
vn -0.971018 0.193148 -0.140773
vn -0.971018 0.193148 -0.140773
vn -0.971018 0.193148 -0.140773
vn -0.971018 0.193148 -0.140773
vn -0.971019 0.193147 0.140773
vn -0.971019 0.193147 0.140773
vn -0.971019 0.193147 0.140773
vn -0.971019 0.193147 0.140773
vn -0.717110 0.344369 0.605940
vn -0.717110 0.344369 0.605940
vn -0.717110 0.344368 0.605940
vn -0.717110 0.344369 0.605940
vn 0.717110 0.344369 0.605940
vn 0.717110 0.344369 0.605940
vn 0.717110 0.344369 0.605940
vn 0.717110 0.344369 0.605940
vn 0.971018 0.193148 0.140773
vn 0.971018 0.193148 0.140773
vn 0.971018 0.193148 0.140773
vn 0.971018 0.193148 0.140773
vn 0.971018 0.193148 -0.140773
vn 0.971018 0.193148 -0.140773
vn 0.971018 0.193148 -0.140773
vn 0.971018 0.193148 -0.140773
vn 0.481339 0.776461 -0.406720
vn 0.481339 0.776461 -0.406720
vn 0.481340 0.776461 -0.406720
vn 0.481340 0.776461 -0.406720
vn -0.481339 0.776461 -0.406720
vn -0.481339 0.776461 -0.406720
vn -0.481340 0.776461 -0.406720
vn -0.481340 0.776461 -0.406720
vn -0.825494 0.551577 -0.119676
vn -0.825494 0.551577 -0.119676
vn -0.825494 0.551577 -0.119676
vn -0.825494 0.551577 -0.119676
vn -0.825494 0.551577 0.119676
vn -0.825494 0.551577 0.119676
vn -0.825494 0.551577 0.119676
vn -0.825494 0.551577 0.119676
vn -0.481339 0.776461 0.406720
vn -0.481339 0.776461 0.406720
vn -0.481339 0.776461 0.406720
vn -0.481339 0.776461 0.406720
vn 0.481339 0.776461 0.406720
vn 0.481339 0.776461 0.406720
vn 0.481339 0.776461 0.406720
vn 0.481339 0.776461 0.406720
vn 0.825494 0.551577 0.119676
vn 0.825494 0.551577 0.119676
vn 0.825494 0.551577 0.119676
vn 0.825494 0.551577 0.119676
vn 0.825494 0.551577 -0.119676
vn 0.825494 0.551577 -0.119676
vn 0.825494 0.551577 -0.119676
vn 0.825494 0.551577 -0.119676
vn 0.260213 0.940183 -0.219874
vn 0.260213 0.940183 -0.219874
vn 0.260213 0.940183 -0.219874
vn 0.260213 0.940183 -0.219874
vn -0.260213 0.940183 -0.219874
vn -0.260213 0.940183 -0.219874
vn -0.260213 0.940183 -0.219874
vn -0.260213 0.940183 -0.219874
vn -0.553777 0.828786 -0.080284
vn -0.553777 0.828786 -0.080284
vn -0.553777 0.828786 -0.080284
vn -0.553777 0.828786 -0.080284
vn -0.553777 0.828786 0.080284
vn -0.553777 0.828786 0.080284
vn -0.553777 0.828786 0.080284
vn -0.553777 0.828786 0.080284
vn -0.260213 0.940183 0.219874
vn -0.260213 0.940183 0.219874
vn -0.260213 0.940183 0.219874
vn -0.260213 0.940183 0.219874
vn 0.260213 0.940183 0.219874
vn 0.260213 0.940183 0.219874
vn 0.260213 0.940183 0.219874
vn 0.260213 0.940183 0.219874
vn 0.553777 0.828786 0.080284
vn 0.553777 0.828786 0.080284
vn 0.553777 0.828786 0.080284
vn 0.553777 0.828786 0.080284
vn 0.553777 0.828786 -0.080284
vn 0.553777 0.828786 -0.080284
vn 0.553777 0.828786 -0.080284
vn 0.553777 0.828786 -0.080284
vn 0.081917 -0.994233 -0.069218
vn 0.081917 -0.994233 -0.069218
vn 0.081917 -0.994233 -0.069218
vn -0.081917 -0.994233 -0.069218
vn -0.081917 -0.994233 -0.069218
vn -0.081917 -0.994233 -0.069218
vn -0.195012 -0.980393 -0.028272
vn -0.195012 -0.980393 -0.028272
vn -0.195012 -0.980393 -0.028272
vn -0.195012 -0.980393 0.028272
vn -0.195012 -0.980393 0.028272
vn -0.195012 -0.980393 0.028272
vn -0.081917 -0.994233 0.069218
vn -0.081917 -0.994233 0.069218
vn -0.081917 -0.994233 0.069218
vn 0.081917 -0.994233 0.069218
vn 0.081917 -0.994233 0.069218
vn 0.081917 -0.994233 0.069218
vn 0.195012 -0.980393 0.028272
vn 0.195012 -0.980393 0.028272
vn 0.195012 -0.980393 0.028272
vn 0.195012 -0.980393 -0.028272
vn 0.195012 -0.980393 -0.028272
vn 0.195012 -0.980393 -0.028272
vn 0.081917 0.994233 -0.069218
vn 0.081917 0.994233 -0.069218
vn 0.081917 0.994233 -0.069218
vn -0.081917 0.994233 -0.069218
vn -0.081917 0.994233 -0.069218
vn -0.081917 0.994233 -0.069218
vn -0.195012 0.980393 -0.028272
vn -0.195012 0.980393 -0.028272
vn -0.195012 0.980393 -0.028272
vn -0.195012 0.980393 0.028272
vn -0.195012 0.980393 0.028272
vn -0.195012 0.980393 0.028272
vn -0.081917 0.994233 0.069218
vn -0.081917 0.994233 0.069218
vn -0.081917 0.994233 0.069218
vn 0.081917 0.994233 0.069218
vn 0.081917 0.994233 0.069218
vn 0.081917 0.994233 0.069218
vn 0.195012 0.980393 0.028272
vn 0.195012 0.980393 0.028272
vn 0.195012 0.980393 0.028272
vn 0.195012 0.980393 -0.028272
vn 0.195012 0.980393 -0.028272
vn 0.195012 0.980393 -0.028272
s off
g Shell:Shell
usemtl Shell:initialShadingGroup
f 1/1/1 2/2/2 10/3/3 9/4/4
f 2/2/5 3/5/6 11/6/7 10/3/8
f 3/5/9 4/7/10 12/8/11 11/6/12
f 4/7/13 5/9/14 13/10/15 12/8/16
f 5/9/17 6/11/18 14/12/19 13/10/20
f 6/11/21 7/13/22 15/14/23 14/12/24
f 7/13/25 8/15/26 16/16/27 15/14/28
f 8/15/29 1/17/30 9/18/31 16/16/32
f 9/4/33 10/3/34 18/19/35 17/20/36
f 10/3/37 11/6/38 19/21/39 18/19/40
f 11/6/41 12/8/42 20/22/43 19/21/44
f 12/8/45 13/10/46 21/23/47 20/22/48
f 13/10/49 14/12/50 22/24/51 21/23/52
f 14/12/53 15/14/54 23/25/55 22/24/56
f 15/14/57 16/16/58 24/26/59 23/25/60
f 16/16/61 9/18/62 17/27/63 24/26/64
f 17/20/65 18/19/66 26/28/67 25/29/68
f 18/19/69 19/21/70 27/30/71 26/28/72
f 19/21/73 20/22/74 28/31/75 27/30/76
f 20/22/77 21/23/78 29/32/79 28/31/80
f 21/23/81 22/24/82 30/33/83 29/32/84
f 22/24/85 23/25/86 31/34/87 30/33/88
f 23/25/89 24/26/90 32/35/91 31/34/92
f 24/26/93 17/27/94 25/36/95 32/35/96
f 25/29/97 26/28/98 34/37/99 33/38/100
f 26/28/101 27/30/102 35/39/103 34/37/104
f 27/30/105 28/31/106 36/40/107 35/39/108
f 28/31/109 29/32/110 37/41/111 36/40/112
f 29/32/113 30/33/114 38/42/115 37/41/116
f 30/33/117 31/34/118 39/43/119 38/42/120
f 31/34/121 32/35/122 40/44/123 39/43/124
f 32/35/125 25/36/126 33/45/127 40/44/128
f 33/38/129 34/37/130 42/46/131 41/47/132
f 34/37/133 35/39/134 43/48/135 42/46/136
f 35/39/137 36/40/138 44/49/139 43/48/140
f 36/40/141 37/41/142 45/50/143 44/49/144
f 37/41/145 38/42/146 46/51/147 45/50/148
f 38/42/149 39/43/150 47/52/151 46/51/152
f 39/43/153 40/44/154 48/53/155 47/52/156
f 40/44/157 33/45/158 41/54/159 48/53/160
f 41/47/161 42/46/162 50/55/163 49/56/164
f 42/46/165 43/48/166 51/57/167 50/55/168
f 43/48/169 44/49/170 52/58/171 51/57/172
f 44/49/173 45/50/174 53/59/175 52/58/176
f 45/50/177 46/51/178 54/60/179 53/59/180
f 46/51/181 47/52/182 55/61/183 54/60/184
f 47/52/185 48/53/186 56/62/187 55/61/188
f 48/53/189 41/54/190 49/63/191 56/62/192
f 2/2/193 1/1/194 57/64/195
f 3/5/196 2/2/197 57/65/198
f 4/7/199 3/5/200 57/66/201
f 5/9/202 4/7/203 57/67/204
f 6/11/205 5/9/206 57/68/207
f 7/13/208 6/11/209 57/69/210
f 8/15/211 7/13/212 57/70/213
f 1/17/214 8/15/215 57/71/216
f 49/56/217 50/55/218 58/72/219
f 50/55/220 51/57/221 58/73/222
f 51/57/223 52/58/224 58/74/225
f 52/58/226 53/59/227 58/75/228
f 53/59/229 54/60/230 58/76/231
f 54/60/232 55/61/233 58/77/234
f 55/61/235 56/62/236 58/78/237
f 56/62/238 49/63/239 58/79/240
